PathFileType	4	(X/Y/Z)	/Users/visionmauri/1_5_1_f_1_Sports2D/1_5_1_f_1_Sports2D_m_person00.trc
DataRate	CameraRate	NumFrames	NumMarkers	Units	OrigDataRate	OrigDataStartFrame	OrigNumFrames
30.0	30.0	8	22	m	30.0	216	432
Frame#	Time	Hip			RHip			RKnee			RAnkle			RBigToe			RSmallToe			RHeel			LHip			LKnee			LAnkle			LBigToe			LSmallToe			LHeel			Neck			Head			Nose			RShoulder			RElbow			RWrist			LShoulder			LElbow			LWrist			
		X1	Y1	Z1	X2	Y2	Z2	X3	Y3	Z3	X4	Y4	Z4	X5	Y5	Z5	X6	Y6	Z6	X7	Y7	Z7	X8	Y8	Z8	X9	Y9	Z9	X10	Y10	Z10	X11	Y11	Z11	X12	Y12	Z12	X13	Y13	Z13	X14	Y14	Z14	X15	Y15	Z15	X16	Y16	Z16	X17	Y17	Z17	X18	Y18	Z18	X19	Y19	Z19	X20	Y20	Z20	X21	Y21	Z21	X22	Y22	Z22
216	7.216705336426915	0.5509274224564816	0.7601761776954192	0.0301	0.4881164570229308	0.7269657007092316	0.0301	0.5956958463414653	0.46294358298385696	0.129	0.7622119287794787	0.22540516034546104	0.023	0.74338121816658	0.11361946450881769	0.2179	0.7217751887774394	0.12282235100170177	0.1804	0.8067933278958113	0.19289173972985924	-0.0119	0.6162369519786364	0.7931068561063813	0.0301	0.7058156196743125	0.5331767444272207	0.129	0.8236054462006587	0.24072881119994416	0.023	0.8203994916961467	0.15972640003509572	0.2179	0.8460532586661528	0.1747201629496316	0.1804	0.8513201748232846	0.21177340787814852	-0.0119	0.33349206279102467	1.1260685556236947	0.0008	0.16660674810880494	1.2451245154242205	0.0655	0.25315664664432574	1.1157193674801502	0.1076	0.2527640098322912	1.0404917704296692	-0.01275	0.34673018633500846	0.8717384001962672	0.0702	0.3183568446721822	0.7322217612151758	0.1076	0.4681278846297674	1.1661929590252444	-0.01275	0.638228605619794	1.0150774520552373	0.0702	0.6338926488975561	0.9376809852022592	0.1076
217	7.250116009280743	0.5463577225517278	0.7581139829495321	0.0301	0.4828770584374321	0.7228177069967094	0.0301	0.5931322003347289	0.4606674183309835	0.129	0.7610493672682369	0.22618659962365922	0.023	0.7448545769655981	0.11586542392163143	0.2179	0.7222257936057431	0.12472693573882526	0.1804	0.8056343963825787	0.1936698444709713	-0.0119	0.6138217433741313	0.792019918471638	0.0301	0.7060400921257008	0.5319608547144166	0.129	0.8268778168239077	0.24164070447439137	0.023	0.8130695472792394	0.15791152216296142	0.2179	0.8410022907880638	0.17035862132457785	0.1804	0.8547754196603824	0.2118877264309025	-0.0119	0.3286372160431474	1.123826320699415	0.0008	0.16618159084961567	1.2455726591668215	0.0655	0.25481365594539573	1.1170967320053513	0.1076	0.24639776192840832	1.035063260261496	-0.01275	0.338738433118349	0.864124812858894	0.0702	0.3166437800059547	0.7308257695357084	0.1076	0.46496211379351393	1.1685245204173638	-0.01275	0.6355977921045897	1.0212608012824744	0.0702	0.6402428323329	0.9252165533179246	0.1076
218	7.283526682134571	0.5406772356252733	0.755101226829531	0.0301	0.47681578912461225	0.7182052069540815	0.0301	0.5911919541761957	0.459102314705688	0.129	0.7592670040002564	0.22678544704729361	0.023	0.7461648820882406	0.11748468909169557	0.2179	0.7229615000851145	0.12587134361257352	0.1804	0.8033682311016013	0.19370082393118435	-0.0119	0.60876728586347	0.7901526421201182	0.0301	0.7060941305997359	0.5289503528228208	0.129	0.8282037729625792	0.24195777281834155	0.023	0.8087293160571085	0.15405122001809318	0.2179	0.8385662587515234	0.16464987682868387	0.1804	0.8583610989597141	0.20999396899449913	-0.0119	0.3242367538609654	1.1204228788784676	0.0008	0.16764422272636398	1.2454007648084628	0.0655	0.25739864169303417	1.1183780882144465	0.1076	0.23894128176373697	1.0277435497251415	-0.01275	0.329445748879155	0.8566214758265918	0.0702	0.3166775598794598	0.7309504885497249	0.1076	0.46158566978697124	1.170119189185284	-0.01275	0.6334179029312488	1.0263714612225552	0.0702	0.6458195808689483	0.906775009350057	0.1076
219	7.3169373549884	0.5349167967472963	0.7521909826269113	0.0301	0.47000165818686357	0.7158887531870465	0.0301	0.5895666397019651	0.45964757869114137	0.129	0.7573119023487367	0.22730350771950822	0.023	0.7472684962910499	0.11826534564346113	0.2179	0.7256804247269358	0.12659473745197106	0.1804	0.8027245444185293	0.19372789444058036	-0.0119	0.602561599947668	0.7885773971037534	0.0301	0.7046849797624949	0.5286057420954444	0.129	0.8282370323823307	0.24160017921937277	0.023	0.8075573536925328	0.1457127985667019	0.2179	0.8384844057631606	0.15596448575341149	0.1804	0.8615905269680049	0.20630322368500661	-0.0119	0.32230243683167814	1.1168834631675046	0.0008	0.17036333818878938	1.2459697215143026	0.0655	0.2611269997832738	1.1167486770900854	0.1076	0.23255138651176127	1.0220060814835914	-0.01275	0.32059683360086355	0.851790880460472	0.0702	0.31776507354447675	0.7305852231857193	0.1076	0.45852452498855695	1.1702976697929122	-0.01275	0.6321584402670494	1.0296125511556156	0.0702	0.6505336940872762	0.8925304926042897	0.1076
220	7.350348027842228	0.5301348394083389	0.7510818234256689	0.0301	0.46407012894810756	0.7158040099208587	0.0301	0.5884075894349209	0.4606009226921044	0.129	0.7559199103509683	0.22804772239840415	0.023	0.7468903051442828	0.12017773871812754	0.2179	0.7277226754251481	0.12832663857747256	0.1804	0.8027383585860633	0.19424225696670894	-0.0119	0.5978160293689734	0.7868607164853565	0.0301	0.7043863162992025	0.5316708951552247	0.129	0.8303406752099018	0.2418932618236463	0.023	0.8075509455434647	0.13734416094731441	0.2179	0.8413810201516546	0.1484435266570314	0.1804	0.8647675178910875	0.20290473566917472	-0.0119	0.32228728846636534	1.1147386535239867	0.0008	0.1747185083973355	1.247667183563244	0.0655	0.2663637693909477	1.113599970639761	0.1076	0.2280687811650572	1.019769144122943	-0.01275	0.31274576051575903	0.8503965415878793	0.0702	0.31976298232649364	0.7270520529684311	0.1076	0.4573710974426556	1.1703139149400825	-0.01275	0.6299213665890274	1.032504037013035	0.0702	0.6560892490620504	0.8856835796157064	0.1076
221	7.383758700696056	0.5268129679528544	0.7515443478736127	0.0301	0.46059064742865	0.7158243596988122	0.0301	0.5881531596368995	0.45940863294277534	0.129	0.7551409894307358	0.2290870417429672	0.023	0.7445043684261802	0.12461614747206352	0.2179	0.7256130265426876	0.13165825250616825	0.1804	0.8006182627990469	0.19503696271250678	-0.0119	0.5948968663002261	0.7849437536905837	0.0301	0.7055594875760367	0.5379712185586837	0.129	0.8352839604744116	0.24404000620626964	0.023	0.8114257669968731	0.13535053451164222	0.2179	0.849870188607223	0.14846206725333275	0.1804	0.8675596764800922	0.2021758442344234	-0.0119	0.32209749599849063	1.1143780366261442	0.0008	0.18099968900789445	1.2504806284311891	0.0655	0.2724633483213438	1.1133657273611914	0.1076	0.22504080729166917	1.018742327544047	-0.01275	0.3055846767399706	0.8499887748202757	0.0702	0.3226438246510675	0.7203606780054538	0.1076	0.4589522911383843	1.1714530970913704	-0.01275	0.6264095674386133	1.035553426098937	0.0702	0.6624642049903041	0.8841259803821274	0.1076
222	7.417169373549885	0.5244185006644201	0.7522986758065161	0.0301	0.45871593569984453	0.7161831205292799	0.0301	0.5884355140083662	0.4576069620985292	0.129	0.7548120973853447	0.23040503667802237	0.023	0.7422215109748289	0.12920097791103605	0.2179	0.7214223815501783	0.13446911480064896	0.1804	0.7975822757241188	0.19574707164233374	-0.0119	0.5921931703163809	0.7856005630422592	0.0301	0.7032508727226773	0.55003573935576	0.129	0.840171551941999	0.24740767163462293	0.023	0.821217774293715	0.13843201214377104	0.2179	0.8622894751089754	0.1532632300488749	0.1804	0.8696966617218548	0.2026756875001599	-0.0119	0.3217483973209164	1.1143784906448546	0.0008	0.18759667754628306	1.2537534244203652	0.0655	0.2780695146912651	1.1165703044049242	0.1076	0.22258798198444435	1.0172554984642252	-0.01275	0.29934233362673685	0.8486506097413986	0.0702	0.32617451440115175	0.7133857882543696	0.1076	0.46141487707641893	1.1728092790865994	-0.01275	0.6237687445056304	1.0375744484836105	0.0702	0.6669172391356046	0.8843883261076858	0.1076
223	7.450580046403713	0.5221752379187364	0.7532525580073395	0.0301	0.45668012323892193	0.7181967942432818	0.0301	0.5880806112914144	0.45846149087480753	0.129	0.7547865631723658	0.23169941697753454	0.023	0.7419494170683767	0.13148391854625724	0.2179	0.7196545464513532	0.1351387993624949	0.1804	0.7965568677568327	0.19652658627363156	-0.0119	0.5892384247257022	0.7908267007172903	0.0301	0.6960992268080902	0.5665834761512015	0.129	0.8432672271856572	0.2512456493016743	0.023	0.8355409493446541	0.1429347434817896	0.2179	0.8752487462603797	0.15818475801378956	0.1804	0.8708386406977042	0.2036530900516979	-0.0119	0.32250502855200885	1.112832184573066	0.0008	0.1932155667264799	1.2565385764662216	0.0655	0.28352017382176686	1.1188424837233968	0.1076	0.2197249040084507	1.0161566333130336	-0.01275	0.2945185587414109	0.8470772372091799	0.0702	0.32970393146928867	0.7084259327108959	0.1076	0.46264135691571123	1.1727036545011298	-0.01275	0.6226870534482788	1.0381163707677867	0.0702	0.6686907119026115	0.8843442487132753	0.1076
